<?xml version="1.0" standalone="no"?>
<!DOCTYPE svg PUBLIC "-//W3C//DTD SVG 20010904//EN"
 "http://www.w3.org/TR/2001/REC-SVG-20010904/DTD/svg10.dtd">
<svg version="1.0" xmlns="http://www.w3.org/2000/svg"
 width="80.000000pt" height="80.000000pt" viewBox="0 0 80.000000 80.000000"
 preserveAspectRatio="xMidYMid meet">
<metadata>
Created by potrace 1.14, written by Peter Selinger 2001-2017
</metadata>
<g transform="translate(0.000000,80.000000) scale(0.100000,-0.100000)"
fill="#000000" stroke="none">
<path d="M210 775 c0 -8 -6 -15 -14 -15 -8 0 -17 -11 -20 -25 -4 -14 -10 -25
-15 -25 -5 0 -12 -13 -16 -30 -4 -16 -13 -30 -21 -30 -8 0 -14 -7 -14 -15 0
-9 -6 -18 -14 -21 -8 -3 -18 -19 -21 -35 -4 -16 -11 -29 -16 -29 -5 0 -9 -6
-9 -13 0 -7 -9 -19 -20 -27 -19 -13 -20 -26 -20 -172 0 -151 1 -158 20 -158
11 0 20 -4 20 -9 0 -5 13 -12 30 -16 16 -4 30 -10 30 -15 0 -5 13 -11 30 -15
16 -4 30 -11 30 -16 0 -5 9 -9 20 -9 11 0 23 -7 26 -15 3 -8 21 -17 40 -21 19
-3 34 -10 34 -14 0 -5 10 -12 23 -16 12 -4 24 -10 27 -14 5 -8 33 -13 63 -11
15 1 17 15 17 151 0 121 3 150 14 150 8 0 17 12 20 26 4 15 12 32 19 40 29 33
37 44 37 54 0 5 5 10 10 10 6 0 10 7 10 15 0 8 4 15 10 15 5 0 12 11 16 25 3
14 10 25 15 25 5 0 9 7 9 15 0 8 9 15 19 15 10 0 21 -7 25 -15 3 -8 12 -15 21
-15 8 0 15 -4 15 -9 0 -5 16 -12 35 -15 19 -4 35 -11 35 -16 0 -5 9 -12 20
-15 19 -6 20 -15 20 -141 0 -122 8 -160 24 -118 3 9 6 75 6 148 0 119 -2 133
-20 149 -11 9 -27 17 -35 17 -9 0 -18 7 -21 15 -3 8 -21 17 -40 21 -19 3 -34
10 -34 14 0 5 -13 11 -30 15 -16 4 -30 10 -30 15 0 5 -13 11 -30 15 -16 4 -30
11 -30 16 0 5 -11 11 -25 15 -14 3 -25 10 -25 14 0 5 -14 12 -32 15 -17 4 -38
14 -46 21 -7 8 -22 14 -33 14 -10 0 -19 5 -19 10 0 6 -7 10 -15 10 -9 0 -18 6
-21 14 -3 8 -21 17 -40 20 -19 4 -34 11 -34 16 0 6 -7 10 -15 10 -8 0 -15 -7
-15 -15z"/>
<path d="M607 303 c-48 -12 -57 -33 -57 -125 0 -72 3 -88 15 -88 9 0 18 7 21
15 4 8 15 15 25 15 17 0 19 8 19 95 0 52 -1 94 -2 94 -2 -1 -11 -3 -21 -6z"/>
</g>
</svg>
